<mxfile host="65bd71144e">
    <diagram id="z9EzCmLXQSxuZ-4Axso4" name="Page-1">
        <mxGraphModel dx="1497" dy="2302" grid="1" gridSize="10" guides="1" tooltips="1" connect="1" arrows="1" fold="1" page="1" pageScale="1" pageWidth="1654" pageHeight="1169" math="0" shadow="0">
            <root>
                <mxCell id="0"/>
                <mxCell id="1" parent="0"/>
                <mxCell id="CZBQ9HR7Dfr9N-4URWu_-20" style="edgeStyle=orthogonalEdgeStyle;rounded=0;orthogonalLoop=1;jettySize=auto;html=1;entryX=0;entryY=0.5;entryDx=0;entryDy=0;fontSize=12;" parent="1" source="CZBQ9HR7Dfr9N-4URWu_-1" target="CZBQ9HR7Dfr9N-4URWu_-2" edge="1">
                    <mxGeometry relative="1" as="geometry"/>
                </mxCell>
                <mxCell id="CZBQ9HR7Dfr9N-4URWu_-1" value="Actor" style="shape=umlActor;verticalLabelPosition=bottom;verticalAlign=top;html=1;outlineConnect=0;" parent="1" vertex="1">
                    <mxGeometry x="40" y="-1074" width="30" height="60" as="geometry"/>
                </mxCell>
                <mxCell id="CZBQ9HR7Dfr9N-4URWu_-2" value="" style="rounded=0;whiteSpace=wrap;html=1;align=center;" parent="1" vertex="1">
                    <mxGeometry x="540" y="-1120" width="220" height="150" as="geometry"/>
                </mxCell>
                <mxCell id="CZBQ9HR7Dfr9N-4URWu_-3" value="&lt;b&gt;&lt;font style=&quot;font-size: 14px;&quot;&gt;Flower Microservice&lt;/font&gt;&lt;/b&gt;" style="text;html=1;strokeColor=none;fillColor=none;align=center;verticalAlign=middle;whiteSpace=wrap;rounded=0;" parent="1" vertex="1">
                    <mxGeometry x="560" y="-1110" width="60" height="30" as="geometry"/>
                </mxCell>
                <mxCell id="CZBQ9HR7Dfr9N-4URWu_-4" value="&lt;b&gt;&lt;font style=&quot;font-size: 14px;&quot;&gt;Flower Coll&lt;/font&gt;&lt;/b&gt;" style="rounded=0;whiteSpace=wrap;html=1;" parent="1" vertex="1">
                    <mxGeometry x="590" y="-1050" width="120" height="40" as="geometry"/>
                </mxCell>
                <mxCell id="CZBQ9HR7Dfr9N-4URWu_-5" value="" style="rounded=0;whiteSpace=wrap;html=1;align=center;" parent="1" vertex="1">
                    <mxGeometry x="540" y="-830" width="220" height="150" as="geometry"/>
                </mxCell>
                <mxCell id="CZBQ9HR7Dfr9N-4URWu_-6" value="&lt;b&gt;&lt;font style=&quot;font-size: 14px;&quot;&gt;Bouquet Microservice&lt;/font&gt;&lt;/b&gt;" style="text;html=1;strokeColor=none;fillColor=none;align=center;verticalAlign=middle;whiteSpace=wrap;rounded=0;" parent="1" vertex="1">
                    <mxGeometry x="560" y="-820" width="60" height="30" as="geometry"/>
                </mxCell>
                <mxCell id="CZBQ9HR7Dfr9N-4URWu_-7" value="&lt;font style=&quot;font-size: 14px;&quot;&gt;Flower Coll&lt;/font&gt;" style="rounded=0;whiteSpace=wrap;html=1;" parent="1" vertex="1">
                    <mxGeometry x="550" y="-763" width="80" height="40" as="geometry"/>
                </mxCell>
                <mxCell id="CZBQ9HR7Dfr9N-4URWu_-8" value="&lt;font style=&quot;font-size: 14px;&quot;&gt;Bouquet Coll&lt;/font&gt;" style="rounded=0;whiteSpace=wrap;html=1;" parent="1" vertex="1">
                    <mxGeometry x="669" y="-763" width="80" height="40" as="geometry"/>
                </mxCell>
                <mxCell id="CZBQ9HR7Dfr9N-4URWu_-9" value="" style="rounded=0;whiteSpace=wrap;html=1;align=center;" parent="1" vertex="1">
                    <mxGeometry x="540" y="-530" width="220" height="150" as="geometry"/>
                </mxCell>
                <mxCell id="CZBQ9HR7Dfr9N-4URWu_-10" value="&lt;font style=&quot;font-size: 14px;&quot;&gt;&lt;b&gt;Order&lt;br&gt;Microservice&lt;/b&gt;&lt;/font&gt;" style="text;html=1;strokeColor=none;fillColor=none;align=center;verticalAlign=middle;whiteSpace=wrap;rounded=0;" parent="1" vertex="1">
                    <mxGeometry x="560" y="-520" width="60" height="30" as="geometry"/>
                </mxCell>
                <mxCell id="CZBQ9HR7Dfr9N-4URWu_-11" value="&lt;font style=&quot;font-size: 14px;&quot;&gt;Flower Coll&lt;/font&gt;" style="rounded=0;whiteSpace=wrap;html=1;" parent="1" vertex="1">
                    <mxGeometry x="550" y="-463" width="80" height="40" as="geometry"/>
                </mxCell>
                <mxCell id="CZBQ9HR7Dfr9N-4URWu_-12" value="&lt;font style=&quot;font-size: 14px;&quot;&gt;Order Coll&lt;/font&gt;" style="rounded=0;whiteSpace=wrap;html=1;" parent="1" vertex="1">
                    <mxGeometry x="669" y="-463" width="80" height="40" as="geometry"/>
                </mxCell>
                <mxCell id="CZBQ9HR7Dfr9N-4URWu_-13" value="" style="rounded=0;whiteSpace=wrap;html=1;align=center;" parent="1" vertex="1">
                    <mxGeometry x="540" y="-220" width="220" height="150" as="geometry"/>
                </mxCell>
                <mxCell id="CZBQ9HR7Dfr9N-4URWu_-14" value="&lt;b&gt;&lt;font style=&quot;font-size: 14px;&quot;&gt;Utility&lt;br&gt;Microservice&lt;/font&gt;&lt;/b&gt;" style="text;html=1;strokeColor=none;fillColor=none;align=center;verticalAlign=middle;whiteSpace=wrap;rounded=0;" parent="1" vertex="1">
                    <mxGeometry x="560" y="-210" width="60" height="30" as="geometry"/>
                </mxCell>
                <mxCell id="CZBQ9HR7Dfr9N-4URWu_-16" value="&lt;font style=&quot;font-size: 14px;&quot;&gt;Expiration Job&amp;nbsp;&lt;/font&gt;" style="rounded=0;whiteSpace=wrap;html=1;" parent="1" vertex="1">
                    <mxGeometry x="630" y="-153" width="119" height="40" as="geometry"/>
                </mxCell>
                <mxCell id="CZBQ9HR7Dfr9N-4URWu_-31" style="edgeStyle=orthogonalEdgeStyle;rounded=0;orthogonalLoop=1;jettySize=auto;html=1;entryX=1;entryY=0.5;entryDx=0;entryDy=0;fontSize=18;exitX=-0.117;exitY=0.35;exitDx=0;exitDy=0;exitPerimeter=0;" parent="1" source="CZBQ9HR7Dfr9N-4URWu_-17" target="CZBQ9HR7Dfr9N-4URWu_-5" edge="1">
                    <mxGeometry relative="1" as="geometry">
                        <Array as="points">
                            <mxPoint x="1503" y="-755"/>
                        </Array>
                    </mxGeometry>
                </mxCell>
                <mxCell id="CZBQ9HR7Dfr9N-4URWu_-33" style="edgeStyle=orthogonalEdgeStyle;rounded=0;orthogonalLoop=1;jettySize=auto;html=1;entryX=1;entryY=0.5;entryDx=0;entryDy=0;fontSize=18;" parent="1" edge="1">
                    <mxGeometry relative="1" as="geometry">
                        <mxPoint x="1510" y="-458.9999999999998" as="sourcePoint"/>
                        <mxPoint x="760" y="-453.9999999999998" as="targetPoint"/>
                        <Array as="points">
                            <mxPoint x="1510" y="-454"/>
                        </Array>
                    </mxGeometry>
                </mxCell>
                <mxCell id="CZBQ9HR7Dfr9N-4URWu_-17" value="&lt;font style=&quot;font-size: 18px;&quot;&gt;E&lt;br&gt;V&lt;br&gt;E&lt;br&gt;N&lt;br&gt;T&lt;br&gt;&lt;br&gt;B&lt;br&gt;U&lt;br&gt;S&lt;/font&gt;" style="rounded=0;whiteSpace=wrap;html=1;" parent="1" vertex="1">
                    <mxGeometry x="1510" y="-1140" width="60" height="1110" as="geometry"/>
                </mxCell>
                <mxCell id="CZBQ9HR7Dfr9N-4URWu_-21" value="&lt;font style=&quot;&quot;&gt;&lt;font style=&quot;font-size: 18px;&quot;&gt;&lt;b&gt;PUT /flower/:id&lt;/b&gt;&lt;br&gt;{&quot;flowerId&quot;: &quot;sd4-v7w&quot;,&lt;br&gt;&quot;price&quot;: &quot;20&quot;,&lt;br&gt;&quot;quantityChange&quot;: &quot;-10&quot;}&lt;/font&gt;&lt;br&gt;&lt;/font&gt;" style="text;html=1;strokeColor=none;fillColor=none;align=center;verticalAlign=middle;whiteSpace=wrap;rounded=0;fontSize=12;" parent="1" vertex="1">
                    <mxGeometry y="-1104" width="360" height="30" as="geometry"/>
                </mxCell>
                <mxCell id="CZBQ9HR7Dfr9N-4URWu_-25" value="- verify flower exists.&lt;br&gt;- verify flower created by same user.&lt;br&gt;- verify no -ve inventory&lt;br&gt;- update attributes.&lt;br&gt;- emit event&lt;br&gt;respond 202 Accepted" style="shape=process;whiteSpace=wrap;html=1;backgroundOutline=1;fontSize=18;" parent="1" vertex="1">
                    <mxGeometry x="270" y="-1030" width="250" height="150" as="geometry"/>
                </mxCell>
                <mxCell id="CZBQ9HR7Dfr9N-4URWu_-27" value="subject: &quot;flower:updated&quot;,&lt;br&gt;data: {&lt;br&gt;flowerId: &quot;ecig-3nw9&quot;,&lt;br&gt;&quot;name&quot;: &quot;Tulips&quot;,&lt;br&gt;price: 20,&lt;br&gt;quantityChange: -10&lt;br&gt;}" style="shape=card;whiteSpace=wrap;html=1;fontSize=18;" parent="1" vertex="1">
                    <mxGeometry x="960" y="-1160" width="280" height="150" as="geometry"/>
                </mxCell>
                <mxCell id="CZBQ9HR7Dfr9N-4URWu_-28" value="" style="shape=flexArrow;endArrow=classic;html=1;rounded=0;fontSize=18;exitX=1.029;exitY=0.831;exitDx=0;exitDy=0;exitPerimeter=0;width=6.666666666666667;endSize=19.78333333333333;entryX=-0.033;entryY=0.132;entryDx=0;entryDy=0;entryPerimeter=0;" parent="1" source="CZBQ9HR7Dfr9N-4URWu_-2" target="CZBQ9HR7Dfr9N-4URWu_-17" edge="1">
                    <mxGeometry width="50" height="50" relative="1" as="geometry">
                        <mxPoint x="1040" y="-800" as="sourcePoint"/>
                        <mxPoint x="1090" y="-850" as="targetPoint"/>
                    </mxGeometry>
                </mxCell>
                <mxCell id="CZBQ9HR7Dfr9N-4URWu_-36" value="save the changes in the corresponding row" style="shape=process;whiteSpace=wrap;html=1;backgroundOutline=1;fontSize=18;" parent="1" vertex="1">
                    <mxGeometry x="230" y="-760" width="290" height="80" as="geometry"/>
                </mxCell>
                <mxCell id="CZBQ9HR7Dfr9N-4URWu_-37" value="verify the changes are valid for the non reserved flowers&lt;br&gt;save the changes" style="shape=process;whiteSpace=wrap;html=1;backgroundOutline=1;fontSize=18;" parent="1" vertex="1">
                    <mxGeometry x="225" y="-460" width="290" height="80" as="geometry"/>
                </mxCell>
                <mxCell id="CZBQ9HR7Dfr9N-4URWu_-38" value="Redis in-mem" style="rounded=0;whiteSpace=wrap;html=1;fontSize=18;" parent="1" vertex="1">
                    <mxGeometry x="300" y="-173" width="150" height="103" as="geometry"/>
                </mxCell>
                <mxCell id="CZBQ9HR7Dfr9N-4URWu_-41" value="" style="shape=flexArrow;endArrow=classic;startArrow=classic;html=1;rounded=0;fontSize=18;entryX=0;entryY=0.5;entryDx=0;entryDy=0;" parent="1" target="CZBQ9HR7Dfr9N-4URWu_-13" edge="1">
                    <mxGeometry width="100" height="100" relative="1" as="geometry">
                        <mxPoint x="450" y="-145" as="sourcePoint"/>
                        <mxPoint x="840" y="-380" as="targetPoint"/>
                    </mxGeometry>
                </mxCell>
                <mxCell id="2" value="flower:updated" style="text;html=1;strokeColor=none;fillColor=none;align=center;verticalAlign=middle;whiteSpace=wrap;rounded=0;" vertex="1" parent="1">
                    <mxGeometry x="1080" y="-787" width="60" height="30" as="geometry"/>
                </mxCell>
                <mxCell id="3" value="flower:updated" style="text;html=1;strokeColor=none;fillColor=none;align=center;verticalAlign=middle;whiteSpace=wrap;rounded=0;" vertex="1" parent="1">
                    <mxGeometry x="1080" y="-487" width="60" height="30" as="geometry"/>
                </mxCell>
            </root>
        </mxGraphModel>
    </diagram>
</mxfile>